# xmcd CD database file
#
# Track frame offsets:
#	150
#	13237
#	25300
#	36765
#	48930
#	60667
#	73392
#	85237
#	96245
#	110350
#	123887
#	136727
#	149500
#	161275
#	174270
#	185320
#	196945
#	209665
#	221792
#	234192
#	244020
#	256227
#	265670
#	278137
#	288070
#	298975
#	309610
#	322897
#
# Disc length: 4434 seconds
#
# Revision: 0
# Processed by: cddbd v1.4PL0 Copyright (c) Steve Scherf et al.
# Submitted via: CDex 1.50beta9
#
DISCID=9a11501c
DTITLE=Jesse Thomas - Complete Recorded Works, 1948-1958
DYEAR=1900
DGENRE=Blues
TTITLE0=Same Old Stuff 
TTITLE1=Double Due Love You 
TTITLE2=Zetter Blues 
TTITLE3=Mountain Key Blues 
TTITLE4=Melody in C 
TTITLE5=You Are My Dreams 
TTITLE6=I Wonder Why 
TTITLE7=Another Friend Like Me 
TTITLE8=Guess I'll Walk Alone 
TTITLE9=Let's Have Some Fun 
TTITLE10=Gonna Write You a Letter 
TTITLE11=Meet Me Tonight Along the Avenue 
TTITLE12=Tomorrow I May Be Gone 
TTITLE13=Texas Blues 
TTITLE14=I Can't Stay Here 
TTITLE15=Xmas Celebration 
TTITLE16=Now's the Time 
TTITLE17=It's You I'm Thinking Of 
TTITLE18=It's You I'm Thinking Of [alternate take] 
TTITLE19=I Am So Blue 
TTITLE20=Long Time 
TTITLE21=Cool Kind Lover 
TTITLE22=When You Say I Love You 
TTITLE23=Jack of Diamonds
TTITLE24=Another Fool Like Me 
TTITLE25=Gonna Move to California 
TTITLE26=Take Some and Leave Some 
TTITLE27=Blow My Baby Back Home 
EXTD=
EXTT0=
EXTT1=
EXTT2=
EXTT3=
EXTT4=
EXTT5=
EXTT6=
EXTT7=
EXTT8=
EXTT9=
EXTT10=
EXTT11=
EXTT12=
EXTT13=
EXTT14=
EXTT15=
EXTT16=
EXTT17=
EXTT18=
EXTT19=
EXTT20=
EXTT21=
EXTT22=
EXTT23=
EXTT24=
EXTT25=
EXTT26=
EXTT27=
PLAYORDER=
